<svg xmlns="http://www.w3.org/2000/svg" viewBox="0 0 64 64" width="64" height="64">
  <circle cx="32" cy="32" r="32" fill="#A2AAAD"/>
  <path d="M33.5 16c1.8-2.2 4.5-3.5 6.5-3.5 0.3 2.5-0.7 5-2.5 6.8-1.7 1.8-4.3 3.2-6.3 3C30.9 19.9 31.7 18.2 33.5 16z" fill="white"/>
  <path d="M40.8 25.5c-2.5 0-4.5 1.3-6 1.3s-3.8-1.2-6.2-1.2c-3.2 0-6.2 1.9-7.8 4.8-3.3 5.8-0.9 14.4 2.4 19.1 1.6 2.3 3.5 4.9 6 4.8 2.4-0.1 3.3-1.5 6.2-1.5s3.7 1.5 6.2 1.5c2.6 0 4.2-2.3 5.8-4.7 1-1.5 1.4-2.3 2.2-4-5.8-2.2-6.7-10.5-1-13.6C46.4 27.8 43.3 25.5 40.8 25.5z" fill="white"/>
</svg>