<svg xmlns="http://www.w3.org/2000/svg" width="64" height="64" viewBox="0 0 64 64">
  <circle cx="32" cy="32" r="30" fill="#FFD700"/>
  <path d="M28 16c-2 0-4 2-4 6v20c0 4 2 8 8 8s8-4 8-8V22c0-4-2-6-4-6" fill="white"/>
  <line x1="32" y1="18" x2="32" y2="48" stroke="#FFD700" stroke-width="1"/>
  <g stroke="#FFD700" stroke-width="0.8" fill="none">
    <ellipse cx="30" cy="22" rx="2" ry="2.5"/>
    <ellipse cx="34" cy="22" rx="2" ry="2.5"/>
    <ellipse cx="30" cy="28" rx="2" ry="2.5"/>
    <ellipse cx="34" cy="28" rx="2" ry="2.5"/>
    <ellipse cx="30" cy="34" rx="2" ry="2.5"/>
    <ellipse cx="34" cy="34" rx="2" ry="2.5"/>
    <ellipse cx="30" cy="40" rx="2" ry="2.5"/>
    <ellipse cx="34" cy="40" rx="2" ry="2.5"/>
  </g>
  <path d="M26 16c-4-6-8-4-8-4s2 4 6 6" fill="white" opacity="0.8"/>
  <path d="M38 16c4-6 8-4 8-4s-2 4-6 6" fill="white" opacity="0.8"/>
</svg>
