<svg xmlns="http://www.w3.org/2000/svg" width="64" height="64" viewBox="0 0 64 64">
  <circle cx="32" cy="32" r="30" fill="#003399"/>
  <!-- EU stars hint -->
  <g fill="#FFD700" opacity="0.3">
    <circle cx="32" cy="6" r="1.5"/>
    <circle cx="45" cy="10" r="1.5"/>
    <circle cx="54" cy="19" r="1.5"/>
    <circle cx="54" cy="45" r="1.5"/>
    <circle cx="45" cy="54" r="1.5"/>
    <circle cx="32" cy="58" r="1.5"/>
    <circle cx="19" cy="54" r="1.5"/>
    <circle cx="10" cy="45" r="1.5"/>
    <circle cx="10" cy="19" r="1.5"/>
    <circle cx="19" cy="10" r="1.5"/>
  </g>
  <path d="M32 14c0 0-4 6-4 6s-8 10-8 18c0 4 2 8 5 10-1-2-1.5-4-1.5-6 0-6 8.5-16 8.5-16s8.5 10 8.5 16c0 2-0.5 4-1.5 6 3-2 5-6 5-10 0-8-8-18-8-18s-4-6-4-6z" fill="white"/>
</svg>
