<svg xmlns="http://www.w3.org/2000/svg" viewBox="0 0 64 64" width="64" height="64">
  <circle cx="32" cy="32" r="30" fill="#FFCC00"/>
  <circle cx="32" cy="32" r="10" fill="#002B5C"/>
  <g fill="#002B5C">
    <rect x="30" y="12" width="4" height="10" rx="2"/>
    <rect x="30" y="42" width="4" height="10" rx="2"/>
    <rect x="12" y="30" width="10" height="4" rx="2"/>
    <rect x="42" y="30" width="10" height="4" rx="2"/>
    <rect x="16.5" y="16.5" width="4" height="10" rx="2" transform="rotate(45 18.5 21.5)"/>
    <rect x="43.5" y="37.5" width="4" height="10" rx="2" transform="rotate(45 45.5 42.5)"/>
    <rect x="37.5" y="16.5" width="4" height="10" rx="2" transform="rotate(-45 39.5 21.5)"/>
    <rect x="16.5" y="37.5" width="4" height="10" rx="2" transform="rotate(-45 18.5 42.5)"/>
  </g>
</svg>